<?xml version="1.0" standalone="no"?>
<!DOCTYPE svg PUBLIC "-//W3C//DTD SVG 20010904//EN"
 "http://www.w3.org/TR/2001/REC-SVG-20010904/DTD/svg10.dtd">
<svg version="1.0" xmlns="http://www.w3.org/2000/svg"
 width="200.000000pt" height="200.000000pt" viewBox="0 0 200.000000 200.000000"
 preserveAspectRatio="xMidYMid meet">
<metadata>
Created by potrace 1.14, written by Peter Selinger 2001-2017
</metadata>
<g transform="translate(0.000000,200.000000) scale(0.100000,-0.100000)"
fill="#000000" stroke="none">
<path d="M823 1862 c-6 -4 -119 -194 -251 -422 -131 -228 -314 -545 -405 -703
-92 -159 -167 -294 -167 -301 0 -7 39 -79 86 -160 l87 -146 817 0 c715 0 819
2 830 15 26 31 180 279 180 290 0 6 -184 330 -409 720 l-410 710 -173 2 c-95
2 -178 0 -185 -5z m287 -57 c0 -4 -140 -249 -311 -546 -254 -441 -309 -542
-299 -554 10 -12 67 -15 333 -17 l321 -3 63 -108 c35 -60 63 -110 63 -113 0
-2 -272 -4 -604 -4 l-605 0 263 458 c144 251 318 555 387 674 l124 218 133 0
c72 0 132 -2 132 -5z m440 -685 c205 -355 377 -655 382 -667 9 -18 0 -38 -57
-127 -37 -58 -70 -106 -74 -106 -3 0 -69 112 -147 248 -354 622 -479 832 -495
832 -11 0 -69 -91 -175 -275 l-158 -275 -129 0 -129 0 14 23 c8 12 142 244
298 515 156 271 287 489 291 485 4 -4 175 -298 379 -653z m-154 -310 c125
-217 256 -444 291 -505 l63 -110 -772 -3 c-466 -1 -776 2 -781 7 -5 5 -35 54
-67 108 l-58 98 640 3 c690 2 669 1 634 54 -8 13 -82 139 -164 281 l-149 259
61 108 c33 60 64 105 68 102 4 -4 109 -185 234 -402z m-336 39 c29 -49 50 -92
47 -95 -2 -3 -52 -3 -110 -2 l-106 3 52 92 c29 51 55 93 58 93 4 0 30 -41 59
-91z"/>
</g>
</svg>
